<?xml version="1.0" standalone="no"?>
<!DOCTYPE svg PUBLIC "-//W3C//DTD SVG 1.1//EN" "http://www.w3.org/Graphics/SVG/1.1/DTD/svg11.dtd">
<!--Generator: Xara Designer (www.xara.com), SVG filter version: 6.1.0.16-->
<svg stroke-width="0.501" stroke-linejoin="bevel" fill-rule="evenodd" xmlns:xlink="http://www.w3.org/1999/xlink" xmlns="http://www.w3.org/2000/svg" version="1.1" overflow="visible" width="900pt" height="300pt" viewBox="0 0 900 300">
 <defs>
	</defs>
 <g id="Document" fill="none" stroke="black" font-family="Times New Roman" font-size="16" transform="scale(1 -1)">
  <g id="Spread" transform="translate(0 -300)">
   <g id="Layer 1">
    <path d="M 0,75 L 0,240.001 L 900.003,240.001 L 900.003,75 L 0,75 Z M 891.753,83.251 L 891.753,231.75 L 8.25,231.75 L 8.25,83.251 L 891.753,83.251 Z M 14.25,89.251 L 14.25,225.75 L 885.753,225.75 L 885.753,89.251 L 14.25,89.251 Z M 758.145,159.438 C 756.385,156.401 754.986,158.415 753.645,161.238 C 753.349,168.55 749.43,173.689 744.945,178.488 C 746.155,169.429 742.584,164.355 738.645,159.588 C 731.141,153.456 737.875,147.861 741.645,150.288 C 746.77,151.795 750.977,147.496 747.645,144.888 C 744.544,144.625 742.114,143.525 740.595,141.288 C 732.183,134.627 745.353,122.773 752.445,134.538 C 757.184,141.606 759.326,139.461 758.145,133.038 C 753.039,105.288 726.853,92.632 708.195,109.488 C 705.55,114.609 705.906,119.37 713.295,123.288 C 714.917,120.933 716.036,122.094 717.195,122.988 C 713.045,127.975 708.895,128.205 704.745,122.538 C 698.04,121.886 696.578,122.546 697.845,123.888 C 700.499,123.822 701.211,124.971 700.695,126.888 C 699.979,131.026 701.562,134.398 703.395,137.688 C 699.929,137.423 697.125,135.615 694.845,132.588 C 688.363,132.734 689.661,135.042 691.095,137.388 C 695.233,139.201 698.279,141.639 699.645,145.038 C 699.806,149.693 705.641,151.378 714.195,151.638 C 698.023,165.421 674.921,144.822 682.095,122.988 C 686.555,107.706 699.529,98.354 726.195,98.538 C 756.387,102.181 772.949,133.626 758.145,159.438 Z M 432.496,107.688 C 428.118,103.477 421.485,102.93 413.896,103.938 C 413.3,101.986 414.522,100.569 420.796,100.638 C 431.576,100.731 435.958,106.14 432.496,107.688 Z M 796.695,158.838 C 818.948,131.996 796.115,106.124 773.295,102.438 C 804.369,96.624 827.959,133.639 796.695,158.838 Z M 498.528,102.31 C 505.031,103.949 510.932,104.275 516.195,103.203 C 516.6,103.12 516.997,103.382 517.079,103.788 C 517.162,104.193 516.9,104.59 516.494,104.672 C 510.957,105.8 504.822,105.444 498.161,103.765 C 497.76,103.664 497.516,103.256 497.617,102.854 C 497.718,102.453 498.126,102.209 498.528,102.31 Z M 595.095,102.888 C 602.277,103.991 609.576,104.744 617.595,103.338 C 619.314,102.534 621.525,102.362 626.145,105.288 C 637.301,100.329 636.455,106.708 628.395,106.188 C 621.419,105.427 622.506,108.523 625.095,112.338 C 629.946,115.838 634.823,119.392 639.795,123.138 C 632.157,125.619 630.495,123.917 630.945,120.738 C 629.761,118.589 625.786,114.868 621.795,111.138 C 614.717,109.477 605.104,108.179 595.095,106.938 C 586.5,103.541 587.113,102.337 595.095,102.888 Z M 160.396,106.788 C 174.84,113.494 198.661,131.809 180.796,162.138 C 176.627,168.237 170.235,170.134 162.496,169.488 C 169.142,166.674 168.622,154.881 177.196,149.838 C 177.369,141.511 175.833,142.303 173.596,146.838 C 172.247,150.767 169.26,152.461 163.546,150.438 C 167.719,148.347 171.906,146.277 171.196,136.638 C 171.799,119.995 167.224,126.333 166.246,133.038 C 164.294,138.233 160.701,138.709 155.596,134.838 C 169.776,121.481 169.875,110.81 147.646,105.138 C 124.202,105.288 115.468,111.218 114.346,120.138 C 112.48,125.729 114.954,128.614 121.396,121.488 C 126.001,111.302 138.397,119.529 127.396,126.888 C 119.094,128.469 114.985,135.339 126.196,134.238 C 134.39,130.625 135.021,133.317 131.296,139.638 C 131.018,145.928 124.532,144.231 120.946,144.138 C 115.828,144.006 110.882,148.816 110.146,153.888 C 106.934,147.91 106.38,142.596 112.846,139.038 C 118.758,135.043 112.085,131.823 109.246,136.788 C 109.196,141.438 106.548,143.49 104.146,145.788 C 96.396,116.882 127.305,94.486 160.396,106.788 Z M 295.246,106.038 C 277.312,108.851 266.155,116.933 258.946,128.088 C 267.57,126.199 269.612,131.085 284.296,130.788 C 295.942,133.065 297.952,132.007 289.096,127.188 C 296.741,127.811 302.315,127.992 298.396,126.138 C 294.686,123.922 293.168,122.413 302.296,124.338 C 320.566,129.98 310.764,124.904 303.346,120.738 C 307.049,119.721 310.491,120.01 313.396,122.988 C 320.873,122.656 319.37,121.605 316.396,120.438 C 313.392,121.704 308.925,110.435 321.946,119.988 C 326.929,122.275 329.732,122.866 327.496,119.538 C 323.482,115.192 323.111,113.927 329.446,118.338 C 337.842,124.984 340.464,125.856 338.596,122.238 C 336.24,117.881 334.184,113.895 340.996,120.888 C 344.901,123.539 348.918,126.312 347.446,123.138 C 345.128,119.61 346.217,119.063 353.446,123.888 C 355.618,122.248 357.635,121.228 358.546,124.638 C 373.995,128.249 382.746,132.649 384.796,137.838 C 373.298,131.417 363.784,129.088 358.696,135.888 C 348.118,132.586 349.334,135.718 349.246,138.138 C 344.323,138.296 341.048,139.396 338.896,141.138 C 338.31,144.212 339.663,147.165 345.496,149.838 C 341.92,150.557 339.06,151.222 337.546,151.788 C 339.46,154.59 337.384,154.899 335.596,155.388 C 331.998,158.16 329.978,161.835 329.146,166.188 C 329.208,172.45 328.166,177.608 324.196,179.838 C 301.866,197.716 283.964,201.997 267.346,202.338 C 285.574,194.3 303.968,189.243 321.646,171.288 C 326.66,162.477 323.149,164.561 319.996,166.188 C 316.825,172.726 311.208,173.964 305.446,174.888 C 291.839,176.997 286.01,176.651 303.196,169.038 C 316.443,157.587 312.946,156.552 306.346,160.788 C 296.951,167.93 289.688,168.32 282.796,167.538 C 285.597,163.954 288.094,159.685 292.846,160.488 C 302.095,156.055 297.82,155.763 287.446,157.338 C 255.669,186.187 220.679,202.987 182.596,208.188 C 209.134,198.285 234.689,186.307 257.596,168.738 C 270.934,157.365 283.851,149.916 295.996,149.688 C 326.174,145.216 315.508,142.821 296.746,140.838 C 292.825,144.679 285.827,145.751 277.846,145.938 C 261.643,144.558 269.565,144.823 274.546,144.888 C 280.622,142.545 278.704,141.886 276.496,141.288 C 272.931,142.324 270.532,141.806 268.246,141.138 C 274.576,138.947 276.215,137.718 266.896,138.738 C 262.431,137.389 258.808,134.893 255.046,132.588 C 249.872,130.538 248.674,128.488 253.396,126.438 L 264.196,114.288 C 271.095,109.938 271.837,107.64 263.296,108.438 C 253.465,109.417 257.514,102.906 263.446,105.288 C 270.83,107.27 276.718,107.093 280.546,103.938 C 285.705,108.602 292.95,103.26 295.083,103.441 C 295.794,103.501 295.937,104.175 295.246,106.038 Z M 696.045,103.638 C 678.895,119.27 664.27,121.5 652.245,109.938 C 664.124,115.318 678.254,111.699 696.045,103.638 Z M 419.746,149.688 C 424.34,152.994 429.074,156.535 426.946,148.638 C 425.045,142.988 422.875,138.145 420.496,133.938 C 414.742,129.958 416.635,129.303 420.346,129.438 C 423.167,132.416 424.282,131.36 422.746,124.038 C 426.971,110.288 419.37,109.89 410.446,110.988 C 423.128,102.511 430.814,105.405 432.046,122.988 C 431.587,131.124 433.414,129.207 435.196,127.488 C 439.083,123.734 443.678,121.745 449.145,121.938 C 454.718,122.631 454.853,121.965 450.945,120.288 C 447.096,117.745 443.245,118.773 439.396,120.738 C 442.821,117.84 446.617,115.68 451.245,115.188 C 470.154,116.277 473.319,126.909 466.095,143.838 C 459.856,131.471 447.818,133.406 435.196,136.788 C 432.347,140.668 430.323,142.715 431.146,138.438 C 431.598,133.886 430.547,134.034 427.846,139.338 C 426.53,148.742 429.803,155.76 438.346,160.038 C 432.43,157.587 430.839,161.919 419.746,161.688 C 403.296,168.794 394.131,152.13 391.998,157.033 C 392.041,157.528 392.376,158.363 393.046,159.588 C 402.059,167.423 411.89,173.251 425.446,169.938 C 431.672,166.948 436.939,166.453 441.196,168.588 C 452.123,166.378 462.706,161.567 472.845,153.438 C 461.246,169.849 446.063,180.374 428.896,187.638 C 427.41,187.883 425.678,185.66 423.796,181.938 C 413.784,179.168 414.825,185.293 419.746,185.388 C 425.202,186.702 424.424,190.095 421.396,194.238 C 416.648,201.152 415.619,195.846 414.196,191.838 C 414.041,188.054 411.91,185.117 408.946,182.538 C 405.693,180.027 405.323,178.093 406.096,176.388 C 390.577,167.623 383.024,172.567 390.796,178.038 C 393.724,182.391 387.315,179.273 379.696,175.188 C 376.522,172.431 375.221,170.001 381.496,168.888 C 384.353,167.793 385.748,166.629 381.605,165.202 C 377.023,165.416 373,166.662 373.246,175.788 C 374.855,179.555 376.388,182.782 377.146,180.588 C 377.982,178.932 378.514,179.405 378.946,180.588 C 381.986,184.15 385.773,187.286 394.696,187.488 C 407.381,184.876 412.344,199.87 395.296,201.438 C 378.619,201.179 384.862,203.559 393.646,204.438 C 398.308,205.499 403.55,204.823 409.396,202.338 C 388.814,234.323 357.461,193.339 327.796,211.488 C 324.784,208.592 333.831,196.165 347.296,199.488 C 352.436,200.703 353.843,199.757 351.496,196.638 C 345.934,196.903 345.828,194.193 345.346,191.688 C 342.331,191.236 339.189,190.787 336.046,190.338 C 322.158,194.626 329.099,185.329 337.546,186.138 C 342.935,189.338 344.286,188.263 342.946,184.338 C 342.051,179.008 342.163,174.349 344.896,171.438 C 349.687,166.251 355.387,161.274 353.896,154.638 C 350.411,146.779 352.264,138.481 364.696,152.538 C 365.736,157.23 367.833,157.065 370.846,152.688 C 372.712,148.754 371.711,146.255 370.846,143.688 C 369.022,138.846 371.705,139.031 380.146,145.638 C 382.568,148.272 384.99,150.685 387.412,151.832 C 391.594,151.385 395.769,151.174 399.946,153.138 C 406.654,156.83 414.304,158.406 422.596,158.538 C 427.292,159.045 430.252,158.922 425.896,156.138 C 371.756,118.861 337.442,111.008 298.467,103.765 C 319.664,104.414 354.766,102.733 419.746,149.688 Z M 203.446,104.988 C 213.052,107.003 222.611,108.547 231.796,106.338 C 239.693,104.118 243.765,107.464 247.096,111.888 C 224.6,115.738 205.97,115.456 195.046,106.938 C 195.582,105.069 197.695,104.049 203.446,104.988 Z M 398.596,109.188 C 394.157,111.149 387.689,111.081 379.696,109.488 C 385.195,106.584 391.52,106.572 398.596,109.188 Z M 862.845,110.538 C 863.093,110.952 862.959,111.49 862.545,111.738 C 862.131,111.986 861.593,111.852 861.345,111.438 C 861.097,111.024 861.231,110.486 861.645,110.238 C 862.059,109.99 862.597,110.124 862.845,110.538 Z M 530.745,112.788 L 528.645,115.188 C 522.624,118.209 528.766,125.782 529.545,119.988 C 533.156,114.716 538.555,113.913 543.945,113.088 C 540.993,113.885 538.72,115.701 536.595,117.738 C 534.178,121.701 535.72,122.332 540.795,119.988 C 544.963,116.661 549.001,111.76 553.695,114.738 C 549.074,118.644 547.768,121.446 550.245,122.988 C 555.912,117.607 562.191,114.675 569.445,115.638 L 564.045,117.738 C 555.691,124.635 562.822,120.693 568.545,117.738 L 576.551,118.215 C 576.818,118.104 577.099,117.995 577.395,117.888 L 577.165,118.252 L 578.595,118.338 L 575.912,120.241 L 574.105,123.11 L 574.354,125.397 C 578.273,127.813 586.693,128.002 591.495,121.188 C 601.929,115.9 610.708,122.888 619.695,122.838 C 618.716,123.788 618.545,124.738 619.545,125.688 C 616.195,128.604 612.845,126.852 609.495,125.538 C 602.435,127.438 603.771,129.338 607.695,131.238 C 601.043,132.82 599.8,135.425 607.845,139.788 C 604.795,140.638 601.745,140.49 598.695,138.138 L 582.495,138.888 C 571.738,136.5 578.654,147.318 583.695,145.188 C 606.21,145.798 601.796,141.845 618.345,154.038 C 609.75,159.394 599.968,159.287 589.395,155.538 C 579.505,155.944 579.314,157.36 588.345,159.738 L 597.499,160.128 L 597.5,160.128 L 608.145,159.588 C 626.76,175.113 646.983,185.549 667.995,193.488 C 657.653,194.773 634.567,185.896 591.576,161.14 L 591.584,161.138 L 589.245,161.538 L 590.445,165.138 L 579.345,165.438 C 558.1,155.186 575.399,176.764 579.495,169.338 L 600.345,169.038 C 618.778,182.609 638.083,193.456 659.745,196.938 C 652.558,200.771 634.305,196.656 598.995,180.288 C 607.986,175.141 595.74,175.16 586.545,174.438 C 574.204,172.226 579.245,175.126 582.795,177.588 L 633.345,198.438 C 610.578,199.884 587.515,191.567 564.345,179.688 C 553.703,168.842 556.417,164.674 559.095,160.488 C 565.328,154.181 564.163,150.649 557.745,149.088 L 558.195,148.373 L 558.202,148.361 C 555.326,148.521 553.894,150.607 553.695,154.338 L 551.145,148.488 C 550.495,155.51 543.119,154.922 545.895,150.438 C 539.514,149.805 538.038,148.504 540.345,146.688 C 538.333,147.86 537.11,147.457 536.295,146.238 C 541.137,138.651 535.48,139.063 530.595,138.888 C 528.146,144.202 524.788,141.778 521.445,139.488 C 523.461,133.533 521.155,135.144 519.345,135.888 C 518.222,129.611 516.437,124.771 512.895,123.738 C 510.475,126.726 507.308,126.348 504.045,125.538 C 500.163,118.611 500.182,127.286 499.695,133.938 C 500.28,138.551 499.126,138.816 497.295,137.388 C 496.377,128.086 497.524,121.882 501.345,119.688 C 504.303,120.8 506.312,120.489 506.895,118.038 C 510.551,115.617 511.607,115.427 509.745,117.738 C 508.606,119.128 508.401,120.752 508.845,122.538 L 515.595,117.288 C 519.804,113.476 523.664,110.061 517.845,117.588 C 517.83,123.126 518.74,121.885 519.945,118.488 C 523.545,115.159 527.145,110.198 530.745,112.788 Z M 97.696,182.988 C 78.231,175.984 59.978,180.365 42.496,191.988 C 54.988,177.378 72.189,174.307 92.596,179.088 C 64.594,159.157 60.86,138.759 73.996,118.038 C 65.181,138.674 79.151,160.692 97.696,182.988 Z M 855.645,122.388 C 856.224,123.216 856.023,124.359 855.195,124.938 C 854.367,125.517 853.224,125.316 852.645,124.488 C 852.066,123.66 852.267,122.517 853.095,121.938 C 853.923,121.359 855.066,121.56 855.645,122.388 Z M 187.096,123.738 C 198.733,127.261 210.169,128.776 220.996,124.188 C 213.323,134.342 202.545,134.294 187.096,123.738 Z M 115.396,128.388 C 113.355,130.414 114.006,133.232 118.696,137.238 C 117.858,135.613 116.658,134.132 118.246,131.538 C 119.509,127.233 118.233,126.933 115.396,128.388 Z M 846.345,131.838 C 847.421,132.831 847.488,134.512 846.495,135.588 C 845.502,136.664 843.821,136.731 842.745,135.738 C 841.669,134.745 841.602,133.064 842.595,131.988 C 843.588,130.912 845.269,130.845 846.345,131.838 Z M 42.346,132.888 C 43.256,134.212 42.92,136.028 41.596,136.938 C 40.272,137.848 38.456,137.512 37.546,136.188 C 36.636,134.864 36.972,133.048 38.296,132.138 C 39.62,131.228 41.436,131.564 42.346,132.888 Z M 523.695,158.838 C 530.068,166.841 531.169,165.721 527.295,155.988 C 525.745,147.809 527.07,147.105 529.545,149.388 C 526.487,154.309 559.641,176.262 541.095,186.438 C 554.978,182.312 560.051,185.553 563.295,191.538 C 553.841,187.506 546.32,189.659 538.995,192.438 C 531.976,194.444 531.516,199.523 538.695,198.888 C 556.951,196.952 569.822,201.001 573.795,214.938 C 549.731,192.604 479.15,235.076 481.545,198.138 C 485.022,202.92 489.182,205.201 493.845,205.638 C 504.387,208.098 509.491,207.333 509.701,205.563 C 510.197,201.382 508.483,206.274 492.195,201.588 C 484.016,194.398 486.22,192.126 493.245,192.138 C 506.1,192.79 517.014,189.838 524.295,180.138 C 524.902,171.344 523.452,171.603 521.895,172.338 L 519.795,180.888 C 518.74,179.948 518.162,178.97 518.745,177.588 C 513.014,167.763 514.494,171.937 516.195,176.538 C 516.437,179.551 516.035,181.598 514.695,182.238 C 511.558,174.723 508.844,174.383 506.145,174.288 C 511.563,177.888 510.451,181.488 504.795,185.088 C 500.579,174.026 494.254,178.793 488.145,181.938 C 486.411,187.802 484.219,190.457 481.695,190.788 C 475.404,199.451 472.304,197.675 470.445,191.838 C 472.016,183.499 470.446,182.871 467.595,185.388 C 470.074,193.143 459.237,194.885 457.395,190.338 C 443.343,188.986 441.714,185.423 456.495,178.938 C 474.126,176.851 490.497,173.601 502.845,166.638 C 503.995,168.871 505.145,170.043 506.295,166.938 C 506.41,163.285 501.296,163.816 496.695,163.938 C 481.082,169.758 474.97,168.541 470.595,166.038 C 484.803,169.243 490.195,151.244 504.195,157.788 C 510.068,161.611 510.467,159.96 508.695,156.138 C 497.937,144.544 504.804,141.459 508.695,136.938 C 508.177,144.829 513.177,152.129 523.695,158.838 Z M 836.145,140.688 C 837.635,142.261 837.568,144.748 835.995,146.238 C 834.422,147.728 831.935,147.661 830.445,146.088 C 828.955,144.515 829.022,142.028 830.595,140.538 C 832.168,139.048 834.655,139.115 836.145,140.688 Z M 630.792,142.873 C 630.827,143.286 630.521,143.649 630.109,143.685 C 624.818,144.14 619.769,144.251 614.877,144.137 C 614.463,144.128 614.135,143.784 614.145,143.37 C 614.154,142.956 614.498,142.628 614.912,142.638 C 619.756,142.75 624.751,142.641 629.98,142.19 C 630.393,142.155 630.756,142.461 630.792,142.873 Z M 48.346,147.288 C 50.002,148.612 50.27,151.032 48.946,152.688 C 47.622,154.344 45.202,154.612 43.546,153.288 C 41.89,151.964 41.622,149.544 42.946,147.888 C 44.27,146.232 46.69,145.964 48.346,147.288 Z M 633.944,147.256 C 633.961,147.669 633.64,148.019 633.226,148.037 L 626.176,148.337 C 625.763,148.354 625.413,148.033 625.395,147.619 C 625.378,147.206 625.699,146.856 626.113,146.838 L 633.163,146.538 C 633.576,146.521 633.926,146.842 633.944,147.256 Z M 765.945,175.788 C 745.7,182.939 757.7,196.167 768.945,185.838 C 783.857,172.695 808.342,179.346 808.095,208.038 C 781.424,165.291 688.503,239.943 584.445,208.488 C 633.92,216.23 681.194,216.029 715.245,195.588 C 713.292,202.242 719.7,201.406 736.695,191.088 C 766.905,169.624 754.391,167.49 764.846,162.969 C 779.943,156.441 781.925,152.691 785.745,147.138 C 786.854,168.252 779.114,176.092 765.945,175.788 Z M 822.195,152.238 C 823.851,154.556 823.313,157.782 820.995,159.438 C 818.677,161.094 815.451,160.556 813.795,158.238 C 812.139,155.92 812.677,152.694 814.995,151.038 C 817.313,149.382 820.539,149.92 822.195,152.238 Z M 441.046,155.988 C 439.364,155.243 437.418,154.477 441.196,154.188 C 444.913,152.308 448.81,150.873 453.345,151.038 C 450.083,154.99 445.889,156.385 441.046,155.988 Z M 268.117,152.463 C 268.324,152.475 268.482,152.652 268.47,152.859 C 268.458,153.066 268.281,153.224 268.074,153.212 C 263.558,152.954 259.133,152.737 255.303,152.843 C 251.455,152.948 248.274,153.378 246.208,154.375 C 246.022,154.465 245.798,154.387 245.708,154.2 C 245.618,154.014 245.696,153.79 245.883,153.7 C 248.107,152.626 251.433,152.199 255.283,152.093 C 259.148,151.987 263.604,152.205 268.117,152.463 Z M 650.711,155.622 C 656.381,155.828 663.98,158.685 670.545,156.438 C 673.686,159.869 670.842,158.697 668.145,157.638 L 645.795,156.588 C 647.146,155.78 648.821,155.554 650.711,155.622 Z M 136.696,157.188 C 121.855,173.471 163.682,204.876 180.046,192.138 C 179.494,194.938 181.113,196.654 185.296,197.088 C 162.141,211.717 128.133,182.535 75.046,210.588 C 75.703,197.026 83.055,187.927 107.896,190.488 C 119.168,193.903 114.924,184.248 108.646,184.338 C 102.709,174.167 96.399,163.682 121.246,179.388 C 126.794,185.102 127.612,182.747 126.346,176.838 C 122.52,161.832 125.938,155.245 136.696,157.188 Z M 257.22,158.073 C 257.228,158.279 257.067,158.454 256.86,158.462 L 249.36,158.762 C 249.154,158.77 248.979,158.609 248.971,158.402 C 248.963,158.196 249.124,158.021 249.331,158.013 L 256.831,157.713 C 257.037,157.705 257.212,157.866 257.22,158.073 Z M 63.496,159.738 C 66.145,161.973 66.481,165.939 64.246,168.588 C 62.011,171.237 58.045,171.573 55.396,169.338 C 52.747,167.103 52.411,163.137 54.646,160.488 C 56.881,157.839 60.847,157.503 63.496,159.738 Z M 221.446,158.388 L 238.546,158.688 C 222.298,160.535 219.937,161.721 236.896,161.988 L 243.496,163.488 C 234.046,165.896 224.596,165.6 215.146,161.688 C 220.982,161.783 226.575,161.801 221.446,158.388 Z M 685.995,190.338 C 674.918,191.54 668.287,196.533 612.645,159.738 L 621.945,158.838 C 642.668,172.001 663.583,184.35 685.995,190.338 Z M 662.145,161.088 L 690.945,164.688 C 682.342,165.211 665.36,163.383 646.245,161.988 C 649.584,161.471 651.149,160.759 662.145,161.088 Z M 241.096,167.688 C 235.585,168.819 231.972,170.371 237.646,173.988 C 229.84,173.475 223.742,173.591 223.696,175.938 C 214.346,177.306 204.996,176.052 195.646,174.138 L 200.746,173.688 C 239.279,174.972 219.717,173.006 196.546,170.838 C 201.743,166.483 198.756,165.729 193.696,165.888 C 196.599,165.052 199.494,164.182 202.846,165.138 C 204.865,162.768 219.237,164.105 241.096,167.688 Z M 657.045,164.988 C 672.051,168.665 684.038,168.72 694.995,167.538 C 681.548,172.095 666.866,170.164 651.795,166.188 L 657.045,164.988 Z M 855.945,208.338 C 848.412,173.6 823.135,168.865 793.095,172.188 C 823,160.234 855.362,169.56 855.945,208.338 Z M 277.996,170.238 L 290.596,171.738 C 263.035,193.112 236.745,200.942 210.496,208.338 C 235.572,198.042 258.962,186.173 277.996,170.238 Z M 716.295,194.838 C 721.396,177.594 714.081,172.621 702.345,171.438 C 719.346,168.753 729.279,176.82 716.295,194.838 Z M 712.995,189.738 C 712.599,181.074 709.411,177.55 705.495,174.888 C 715.236,174.008 717.237,188.178 712.995,189.738 Z M 243.646,203.388 L 288.346,178.788 L 306.346,178.638 C 279.829,194.546 261.015,199.951 243.646,203.388 Z M 305.022,201.176 C 305.25,201.521 305.153,201.987 304.807,202.214 C 296.953,207.377 289.095,209.905 281.252,211.03 C 280.842,211.089 280.462,210.804 280.403,210.394 C 280.344,209.984 280.629,209.604 281.039,209.545 C 288.696,208.446 296.338,205.986 303.984,200.961 C 304.329,200.733 304.795,200.83 305.022,201.176 Z" stroke="none" stroke-linejoin="miter" stroke-width="0.5" fill="#000000" marker-start="none" marker-end="none" stroke-miterlimit="79.8403193612775"/>
   </g>
  </g>
 </g>
</svg>
